<?xml version="1.0" standalone="no"?>
<!DOCTYPE svg PUBLIC "-//W3C//DTD SVG 20010904//EN"
 "http://www.w3.org/TR/2001/REC-SVG-20010904/DTD/svg10.dtd">
<svg version="1.0" xmlns="http://www.w3.org/2000/svg"
 width="1200.000000pt" height="1200.000000pt" viewBox="0 0 1200.000000 1200.000000"
 preserveAspectRatio="xMidYMid meet">
<metadata>
Created by potrace 1.14, written by Peter Selinger 2001-2017
</metadata>
<g transform="translate(0.000000,1200.000000) scale(0.100000,-0.100000)"
fill="#000000" stroke="none">
<path d="M6345 8800 c-132 -11 -220 -26 -321 -55 -419 -122 -763 -374 -987
-723 -47 -74 -80 -114 -95 -118 -12 -4 -64 6 -115 20 -315 89 -648 -40 -822
-319 -42 -68 -95 -203 -95 -243 0 -36 -34 -59 -123 -86 -343 -104 -611 -384
-702 -734 -71 -270 -20 -578 137 -823 56 -87 153 -194 231 -252 67 -51 175
-117 190 -117 4 0 7 245 7 545 0 365 4 561 11 597 16 75 50 137 105 191 62 61
135 95 231 108 52 6 748 9 2058 7 l1980 -3 58 -22 c110 -42 185 -114 230 -224
22 -53 22 -62 25 -646 2 -383 6 -593 13 -593 35 0 210 108 291 179 56 50 159
184 194 252 124 245 131 539 18 786 -107 238 -312 418 -557 493 -45 14 -82 31
-88 41 -5 10 -14 73 -19 141 -6 68 -20 167 -31 221 -122 604 -557 1096 -1141
1292 -237 79 -443 105 -683 85z"/>
<path d="M3924 6646 c-27 -13 -67 -43 -87 -67 -71 -82 -67 7 -67 -1511 l0
-1368 130 0 130 0 0 1344 0 1345 22 15 c20 14 222 16 1950 16 1915 0 1928 0
1948 -20 20 -20 20 -33 20 -1360 l0 -1340 130 0 130 0 -2 1388 -3 1387 -27 50
c-32 62 -70 98 -128 124 -45 20 -54 21 -2070 21 l-2025 0 -51 -24z"/>
<path d="M4150 5000 l0 -1300 1850 0 1850 0 0 1300 0 1300 -1850 0 -1850 0 0
-1300z m2153 799 c23 -10 47 -46 47 -70 0 -5 -54 -163 -119 -352 -379 -1088
-463 -1321 -479 -1333 -48 -37 -122 0 -122 60 0 18 75 246 166 507 91 261 219
627 285 814 136 390 147 408 222 374z m-678 -509 c23 -26 22 -77 -2 -101 -11
-11 -76 -45 -144 -75 -277 -123 -399 -178 -396 -180 3 -2 289 -131 417 -187
120 -52 140 -69 140 -118 0 -44 -27 -69 -73 -69 -16 0 -133 47 -261 104 -453
204 -436 193 -436 273 0 29 7 50 23 67 20 23 155 87 559 266 112 49 143 53
173 20z m1100 -100 c138 -62 277 -125 310 -140 78 -35 98 -58 99 -114 2 -76
12 -69 -443 -272 -139 -62 -247 -104 -266 -104 -62 0 -92 77 -47 123 12 11
134 71 272 132 138 62 252 115 253 119 1 4 -101 53 -228 110 -315 140 -302
133 -314 167 -22 63 33 120 94 98 11 -4 133 -57 270 -119z"/>
<path d="M3545 3571 c-11 -5 -29 -19 -40 -31 -19 -20 -20 -36 -20 -212 l0
-190 33 -29 32 -29 2450 0 2450 0 32 29 33 29 0 191 0 191 -28 27 -27 28 -820
3 -820 2 0 -59 c0 -109 -48 -192 -135 -232 -38 -17 -78 -19 -683 -19 -714 0
-682 -3 -755 68 -43 42 -67 109 -67 189 l0 53 -807 -1 c-445 0 -817 -4 -828
-8z"/>
<path d="M5307 3573 c-12 -11 -8 -82 7 -117 29 -70 -8 -66 686 -66 562 0 628
2 649 16 31 22 51 73 51 129 l0 45 -693 0 c-382 0 -697 -3 -700 -7z"/>
</g>
</svg>
